# xmcd
#
# Track frame offsets: 
#        150
#        17269
#        33807
#        49188
#        67734
#        85576
#        108973
#        126219
#        146169
#
# Disc length: 2201 seconds
#
# Revision: 0
# Processed by: cddbd v1.5.2PL0 Copyright (c) Steve Scherf et al.
# Submitted via: ExactAudioCopyFreeDBPlugin 1.0
#
DISCID=66089709
DTITLE=David Graham - Me, The Wheel And The Windin' Road
DYEAR=2012
DGENRE=Country
TTITLE0=White Man Blues
TTITLE1=Me, The Wheel And The Windin' Road
TTITLE2=Alone Again
TTITLE3=Sad Songs And Whiskey
TTITLE4=You And Me
TTITLE5=Ramblin' Fever
TTITLE6=Gone As Gone Can Be
TTITLE7=Bad Case Of The Long Gones
TTITLE8=Letting You Go
EXTD=
EXTT0=
EXTT1=
EXTT2=
EXTT3=
EXTT4=
EXTT5=
EXTT6=
EXTT7=
EXTT8=
PLAYORDER=
